<svg width="120" height="120" viewBox="0 0 120 120" fill="none" xmlns="http://www.w3.org/2000/svg">
<circle cx="60" cy="60" r="60" fill="#CBC2B4"/>
<g clip-path="url(#clip0_275_241)">
<path d="M82.5365 34.6667C74.4488 34.6667 54.9501 35.9667 43.2508 47.6659C35.7063 55.2105 35.0381 67 41.1973 75.3252L31.9617 84.5607L36.4393 89.0384L45.6749 79.8028C49.4163 82.5705 53.8497 83.9797 58.2925 83.9797C63.736 83.9797 69.1811 81.9023 73.3342 77.7492C88.3758 62.7076 86.2272 34.7728 86.2272 34.7728C86.2272 34.7728 84.8482 34.6667 82.5365 34.6667ZM43.3538 62.7076C43.3538 58.7176 44.907 54.9651 47.7285 52.1436C55.1702 44.7019 66.7491 42.1765 75.1566 41.3642L45.7335 70.7889C44.1898 68.3997 43.3538 65.6193 43.3538 62.7076ZM68.8565 73.27C66.035 76.0915 62.2841 77.6447 58.2925 77.6447C55.3808 77.6447 52.6004 76.8087 50.2112 75.265L79.6263 45.8498C78.8093 54.2811 76.2808 65.8457 68.8565 73.27Z" fill="#342418"/>
</g>
<defs>
<clipPath id="clip0_275_241">
<rect width="76" height="76" fill="white" transform="translate(23 22)"/>
</clipPath>
</defs>
</svg>
