<svg width="269" height="71" viewBox="0 0 269 71" fill="none" xmlns="http://www.w3.org/2000/svg">
<rect width="269" height="71" rx="35.5" fill="#593D29"/>
<path d="M56.3182 35.2727C56.3182 37.1534 55.9659 38.7642 55.2614 40.1051C54.5625 41.4403 53.608 42.4631 52.3977 43.1733C51.1932 43.8835 49.8267 44.2386 48.2983 44.2386C46.7699 44.2386 45.4006 43.8835 44.1903 43.1733C42.9858 42.4574 42.0313 41.4318 41.3267 40.0966C40.6278 38.7557 40.2784 37.1477 40.2784 35.2727C40.2784 33.392 40.6278 31.7841 41.3267 30.4489C42.0313 29.108 42.9858 28.0824 44.1903 27.3722C45.4006 26.6619 46.7699 26.3068 48.2983 26.3068C49.8267 26.3068 51.1932 26.6619 52.3977 27.3722C53.608 28.0824 54.5625 29.108 55.2614 30.4489C55.9659 31.7841 56.3182 33.392 56.3182 35.2727ZM53.1392 35.2727C53.1392 33.9489 52.9318 32.8324 52.517 31.9233C52.108 31.0085 51.5398 30.3182 50.8125 29.8523C50.0852 29.3807 49.2472 29.1449 48.2983 29.1449C47.3494 29.1449 46.5114 29.3807 45.7841 29.8523C45.0568 30.3182 44.4858 31.0085 44.071 31.9233C43.6619 32.8324 43.4574 33.9489 43.4574 35.2727C43.4574 36.5966 43.6619 37.7159 44.071 38.6307C44.4858 39.5398 45.0568 40.2301 45.7841 40.7017C46.5114 41.1676 47.3494 41.4006 48.2983 41.4006C49.2472 41.4006 50.0852 41.1676 50.8125 40.7017C51.5398 40.2301 52.108 39.5398 52.517 38.6307C52.9318 37.7159 53.1392 36.5966 53.1392 35.2727ZM67.5149 38.4943V30.9091H70.6001V44H67.6087V41.6733H67.4723C67.1768 42.4062 66.6911 43.0057 66.0149 43.4716C65.3445 43.9375 64.5178 44.1705 63.5348 44.1705C62.6768 44.1705 61.9183 43.9801 61.2592 43.5994C60.6058 43.2131 60.0945 42.6534 59.7251 41.9205C59.3558 41.1818 59.1712 40.2898 59.1712 39.2443V30.9091H62.2564V38.767C62.2564 39.5966 62.4837 40.2557 62.9382 40.7443C63.3928 41.233 63.9893 41.4773 64.728 41.4773C65.1825 41.4773 65.6229 41.3665 66.049 41.1449C66.4751 40.9233 66.8246 40.5938 67.0973 40.1562C67.3757 39.7131 67.5149 39.1591 67.5149 38.4943ZM73.7727 44V30.9091H76.7642V33.0909H76.9006C77.1392 32.3352 77.5483 31.7528 78.1278 31.3438C78.7131 30.929 79.3807 30.7216 80.1307 30.7216C80.3011 30.7216 80.4915 30.7301 80.7017 30.7472C80.9176 30.7585 81.0966 30.7784 81.2386 30.8068V33.6449C81.108 33.5994 80.9006 33.5597 80.6165 33.5256C80.3381 33.4858 80.0682 33.4659 79.8068 33.4659C79.2443 33.4659 78.7386 33.5881 78.2898 33.8324C77.8466 34.071 77.4972 34.4034 77.2415 34.8295C76.9858 35.2557 76.858 35.7472 76.858 36.304V44H73.7727ZM89.3778 44V26.5455H95.9233C97.2642 26.5455 98.3892 26.7955 99.2983 27.2955C100.213 27.7955 100.903 28.483 101.369 29.358C101.841 30.2273 102.077 31.2159 102.077 32.3239C102.077 33.4432 101.841 34.4375 101.369 35.3068C100.898 36.1761 100.202 36.8608 99.2812 37.3608C98.3608 37.8551 97.2273 38.1023 95.8807 38.1023H91.5426V35.5028H95.4545C96.2386 35.5028 96.8807 35.3665 97.3807 35.0938C97.8807 34.821 98.25 34.446 98.4886 33.9688C98.733 33.4915 98.8551 32.9432 98.8551 32.3239C98.8551 31.7045 98.733 31.1591 98.4886 30.6875C98.25 30.2159 97.8778 29.8494 97.3722 29.5881C96.8722 29.321 96.2273 29.1875 95.4375 29.1875H92.5398V44H89.3778ZM104.687 44V30.9091H107.678V33.0909H107.815C108.053 32.3352 108.462 31.7528 109.042 31.3438C109.627 30.929 110.295 30.7216 111.045 30.7216C111.215 30.7216 111.406 30.7301 111.616 30.7472C111.832 30.7585 112.011 30.7784 112.153 30.8068V33.6449C112.022 33.5994 111.815 33.5597 111.531 33.5256C111.252 33.4858 110.982 33.4659 110.721 33.4659C110.158 33.4659 109.653 33.5881 109.204 33.8324C108.761 34.071 108.411 34.4034 108.156 34.8295C107.9 35.2557 107.772 35.7472 107.772 36.304V44H104.687ZM119.374 44.2557C118.095 44.2557 116.987 43.9744 116.05 43.4119C115.112 42.8494 114.385 42.0625 113.868 41.0511C113.357 40.0398 113.101 38.858 113.101 37.5057C113.101 36.1534 113.357 34.9687 113.868 33.9517C114.385 32.9347 115.112 32.1449 116.05 31.5824C116.987 31.0199 118.095 30.7386 119.374 30.7386C120.652 30.7386 121.76 31.0199 122.697 31.5824C123.635 32.1449 124.359 32.9347 124.871 33.9517C125.388 34.9687 125.646 36.1534 125.646 37.5057C125.646 38.858 125.388 40.0398 124.871 41.0511C124.359 42.0625 123.635 42.8494 122.697 43.4119C121.76 43.9744 120.652 44.2557 119.374 44.2557ZM119.391 41.7841C120.084 41.7841 120.663 41.5937 121.129 41.2131C121.595 40.8267 121.942 40.3097 122.169 39.6619C122.402 39.0142 122.518 38.2926 122.518 37.4972C122.518 36.696 122.402 35.9716 122.169 35.3239C121.942 34.6705 121.595 34.1506 121.129 33.7642C120.663 33.3778 120.084 33.1847 119.391 33.1847C118.68 33.1847 118.089 33.3778 117.618 33.7642C117.152 34.1506 116.803 34.6705 116.57 35.3239C116.342 35.9716 116.229 36.696 116.229 37.4972C116.229 38.2926 116.342 39.0142 116.57 39.6619C116.803 40.3097 117.152 40.8267 117.618 41.2131C118.089 41.5937 118.68 41.7841 119.391 41.7841ZM133.123 44.2301C132.094 44.2301 131.174 43.9659 130.362 43.4375C129.549 42.9091 128.907 42.142 128.435 41.1364C127.964 40.1307 127.728 38.9091 127.728 37.4716C127.728 36.017 127.967 34.7898 128.444 33.7898C128.927 32.7841 129.577 32.0256 130.396 31.5142C131.214 30.9972 132.126 30.7386 133.131 30.7386C133.898 30.7386 134.529 30.8693 135.023 31.1307C135.518 31.3864 135.91 31.696 136.2 32.0597C136.489 32.4176 136.714 32.7557 136.873 33.0739H137.001V26.5455H140.094V44H137.06V41.9375H136.873C136.714 42.2557 136.484 42.5937 136.183 42.9517C135.881 43.304 135.484 43.6051 134.989 43.8551C134.495 44.1051 133.873 44.2301 133.123 44.2301ZM133.984 41.6989C134.637 41.6989 135.194 41.5227 135.654 41.1705C136.114 40.8125 136.464 40.3153 136.702 39.679C136.941 39.0426 137.06 38.3011 137.06 37.4545C137.06 36.608 136.941 35.8722 136.702 35.2472C136.469 34.6222 136.123 34.1364 135.663 33.7898C135.208 33.4432 134.648 33.2699 133.984 33.2699C133.296 33.2699 132.722 33.4489 132.262 33.8068C131.802 34.1648 131.455 34.6591 131.222 35.2898C130.989 35.9205 130.873 36.642 130.873 37.4545C130.873 38.2727 130.989 39.0028 131.222 39.6449C131.461 40.2812 131.81 40.7841 132.271 41.1534C132.737 41.517 133.308 41.6989 133.984 41.6989ZM151.726 38.4943V30.9091H154.811V44H151.82V41.6733H151.683C151.388 42.4062 150.902 43.0057 150.226 43.4716C149.555 43.9375 148.729 44.1705 147.746 44.1705C146.888 44.1705 146.129 43.9801 145.47 43.5994C144.817 43.2131 144.305 42.6534 143.936 41.9205C143.567 41.1818 143.382 40.2898 143.382 39.2443V30.9091H146.467V38.767C146.467 39.5966 146.695 40.2557 147.149 40.7443C147.604 41.233 148.2 41.4773 148.939 41.4773C149.393 41.4773 149.834 41.3665 150.26 41.1449C150.686 40.9233 151.036 40.5938 151.308 40.1562C151.587 39.7131 151.726 39.1591 151.726 38.4943ZM163.694 44.2557C162.387 44.2557 161.265 43.9688 160.327 43.3949C159.396 42.821 158.677 42.0284 158.171 41.017C157.671 40 157.421 38.8295 157.421 37.5057C157.421 36.1761 157.677 35.0028 158.188 33.9858C158.7 32.9631 159.421 32.1676 160.353 31.5994C161.29 31.0256 162.398 30.7386 163.677 30.7386C164.739 30.7386 165.68 30.9347 166.498 31.3267C167.322 31.7131 167.978 32.2614 168.467 32.9716C168.955 33.6761 169.234 34.5 169.302 35.4432H166.353C166.234 34.8125 165.95 34.2869 165.501 33.8665C165.058 33.4403 164.464 33.2273 163.719 33.2273C163.089 33.2273 162.535 33.3977 162.058 33.7386C161.58 34.0739 161.208 34.5568 160.941 35.1875C160.68 35.8182 160.549 36.5739 160.549 37.4545C160.549 38.3466 160.68 39.1136 160.941 39.7557C161.202 40.392 161.569 40.8835 162.04 41.2301C162.518 41.571 163.077 41.7415 163.719 41.7415C164.174 41.7415 164.58 41.6562 164.938 41.4858C165.302 41.3097 165.606 41.0568 165.85 40.7273C166.094 40.3977 166.262 39.9972 166.353 39.5256H169.302C169.228 40.4517 168.955 41.2727 168.484 41.9886C168.012 42.6989 167.37 43.2557 166.558 43.6591C165.745 44.0568 164.79 44.2557 163.694 44.2557ZM178.372 30.9091V33.2955H170.847V30.9091H178.372ZM172.705 27.7727H175.79V40.0625C175.79 40.4773 175.852 40.7955 175.977 41.017C176.108 41.233 176.278 41.3807 176.489 41.4602C176.699 41.5398 176.932 41.5795 177.188 41.5795C177.381 41.5795 177.557 41.5653 177.716 41.5369C177.881 41.5085 178.006 41.483 178.091 41.4602L178.611 43.8722C178.446 43.929 178.21 43.9915 177.903 44.0597C177.602 44.1278 177.233 44.1676 176.795 44.179C176.023 44.2017 175.327 44.0852 174.707 43.8295C174.088 43.5682 173.597 43.1648 173.233 42.6193C172.875 42.0739 172.699 41.392 172.705 40.5739V27.7727Z" fill="white"/>
<path fill-rule="evenodd" clip-rule="evenodd" d="M213.013 27.2627C213.341 26.9347 213.786 26.7504 214.25 26.7504C214.714 26.7504 215.159 26.9347 215.487 27.2627L222.487 34.2627C222.815 34.5909 223 35.036 223 35.5C223 35.964 222.815 36.4091 222.487 36.7372L215.487 43.7372C215.157 44.056 214.715 44.2324 214.256 44.2284C213.797 44.2244 213.359 44.0404 213.034 43.7159C212.71 43.3915 212.526 42.9525 212.522 42.4937C212.518 42.0349 212.694 41.5928 213.013 41.2627L217.026 37.25H203.75C203.286 37.25 202.841 37.0656 202.513 36.7374C202.184 36.4092 202 35.9641 202 35.5C202 35.0359 202.184 34.5907 202.513 34.2626C202.841 33.9344 203.286 33.75 203.75 33.75H217.026L213.013 29.7372C212.685 29.4091 212.5 28.964 212.5 28.5C212.5 28.036 212.685 27.5909 213.013 27.2627Z" fill="white"/>
</svg>
