<svg width="288" height="88" viewBox="0 0 288 88" fill="none" xmlns="http://www.w3.org/2000/svg">
<rect x="8" y="9" width="269" height="71" rx="35.5" fill="#593D29"/>
<path d="M64.3182 44.2727C64.3182 46.1534 63.9659 47.7642 63.2614 49.1051C62.5625 50.4403 61.608 51.4631 60.3977 52.1733C59.1932 52.8835 57.8267 53.2386 56.2983 53.2386C54.7699 53.2386 53.4006 52.8835 52.1903 52.1733C50.9858 51.4574 50.0313 50.4318 49.3267 49.0966C48.6278 47.7557 48.2784 46.1477 48.2784 44.2727C48.2784 42.392 48.6278 40.7841 49.3267 39.4489C50.0313 38.108 50.9858 37.0824 52.1903 36.3722C53.4006 35.6619 54.7699 35.3068 56.2983 35.3068C57.8267 35.3068 59.1932 35.6619 60.3977 36.3722C61.608 37.0824 62.5625 38.108 63.2614 39.4489C63.9659 40.7841 64.3182 42.392 64.3182 44.2727ZM61.1392 44.2727C61.1392 42.9489 60.9318 41.8324 60.517 40.9233C60.108 40.0085 59.5398 39.3182 58.8125 38.8523C58.0852 38.3807 57.2472 38.1449 56.2983 38.1449C55.3494 38.1449 54.5114 38.3807 53.7841 38.8523C53.0568 39.3182 52.4858 40.0085 52.071 40.9233C51.6619 41.8324 51.4574 42.9489 51.4574 44.2727C51.4574 45.5966 51.6619 46.7159 52.071 47.6307C52.4858 48.5398 53.0568 49.2301 53.7841 49.7017C54.5114 50.1676 55.3494 50.4006 56.2983 50.4006C57.2472 50.4006 58.0852 50.1676 58.8125 49.7017C59.5398 49.2301 60.108 48.5398 60.517 47.6307C60.9318 46.7159 61.1392 45.5966 61.1392 44.2727ZM75.5149 47.4943V39.9091H78.6001V53H75.6087V50.6733H75.4723C75.1768 51.4062 74.6911 52.0057 74.0149 52.4716C73.3445 52.9375 72.5178 53.1705 71.5348 53.1705C70.6768 53.1705 69.9183 52.9801 69.2592 52.5994C68.6058 52.2131 68.0945 51.6534 67.7251 50.9205C67.3558 50.1818 67.1712 49.2898 67.1712 48.2443V39.9091H70.2564V47.767C70.2564 48.5966 70.4837 49.2557 70.9382 49.7443C71.3928 50.233 71.9893 50.4773 72.728 50.4773C73.1825 50.4773 73.6229 50.3665 74.049 50.1449C74.4751 49.9233 74.8246 49.5938 75.0973 49.1562C75.3757 48.7131 75.5149 48.1591 75.5149 47.4943ZM81.7727 53V39.9091H84.7642V42.0909H84.9006C85.1392 41.3352 85.5483 40.7528 86.1278 40.3438C86.7131 39.929 87.3807 39.7216 88.1307 39.7216C88.3011 39.7216 88.4915 39.7301 88.7017 39.7472C88.9176 39.7585 89.0966 39.7784 89.2386 39.8068V42.6449C89.108 42.5994 88.9006 42.5597 88.6165 42.5256C88.3381 42.4858 88.0682 42.4659 87.8068 42.4659C87.2443 42.4659 86.7386 42.5881 86.2898 42.8324C85.8466 43.071 85.4972 43.4034 85.2415 43.8295C84.9858 44.2557 84.858 44.7472 84.858 45.304V53H81.7727ZM97.3778 53V35.5455H103.923C105.264 35.5455 106.389 35.7955 107.298 36.2955C108.213 36.7955 108.903 37.483 109.369 38.358C109.841 39.2273 110.077 40.2159 110.077 41.3239C110.077 42.4432 109.841 43.4375 109.369 44.3068C108.898 45.1761 108.202 45.8608 107.281 46.3608C106.361 46.8551 105.227 47.1023 103.881 47.1023H99.5426V44.5028H103.455C104.239 44.5028 104.881 44.3665 105.381 44.0938C105.881 43.821 106.25 43.446 106.489 42.9688C106.733 42.4915 106.855 41.9432 106.855 41.3239C106.855 40.7045 106.733 40.1591 106.489 39.6875C106.25 39.2159 105.878 38.8494 105.372 38.5881C104.872 38.321 104.227 38.1875 103.438 38.1875H100.54V53H97.3778ZM112.687 53V39.9091H115.678V42.0909H115.815C116.053 41.3352 116.462 40.7528 117.042 40.3438C117.627 39.929 118.295 39.7216 119.045 39.7216C119.215 39.7216 119.406 39.7301 119.616 39.7472C119.832 39.7585 120.011 39.7784 120.153 39.8068V42.6449C120.022 42.5994 119.815 42.5597 119.531 42.5256C119.252 42.4858 118.982 42.4659 118.721 42.4659C118.158 42.4659 117.653 42.5881 117.204 42.8324C116.761 43.071 116.411 43.4034 116.156 43.8295C115.9 44.2557 115.772 44.7472 115.772 45.304V53H112.687ZM127.374 53.2557C126.095 53.2557 124.987 52.9744 124.05 52.4119C123.112 51.8494 122.385 51.0625 121.868 50.0511C121.357 49.0398 121.101 47.858 121.101 46.5057C121.101 45.1534 121.357 43.9687 121.868 42.9517C122.385 41.9347 123.112 41.1449 124.05 40.5824C124.987 40.0199 126.095 39.7386 127.374 39.7386C128.652 39.7386 129.76 40.0199 130.697 40.5824C131.635 41.1449 132.359 41.9347 132.871 42.9517C133.388 43.9687 133.646 45.1534 133.646 46.5057C133.646 47.858 133.388 49.0398 132.871 50.0511C132.359 51.0625 131.635 51.8494 130.697 52.4119C129.76 52.9744 128.652 53.2557 127.374 53.2557ZM127.391 50.7841C128.084 50.7841 128.663 50.5937 129.129 50.2131C129.595 49.8267 129.942 49.3097 130.169 48.6619C130.402 48.0142 130.518 47.2926 130.518 46.4972C130.518 45.696 130.402 44.9716 130.169 44.3239C129.942 43.6705 129.595 43.1506 129.129 42.7642C128.663 42.3778 128.084 42.1847 127.391 42.1847C126.68 42.1847 126.089 42.3778 125.618 42.7642C125.152 43.1506 124.803 43.6705 124.57 44.3239C124.342 44.9716 124.229 45.696 124.229 46.4972C124.229 47.2926 124.342 48.0142 124.57 48.6619C124.803 49.3097 125.152 49.8267 125.618 50.2131C126.089 50.5937 126.68 50.7841 127.391 50.7841ZM141.123 53.2301C140.094 53.2301 139.174 52.9659 138.362 52.4375C137.549 51.9091 136.907 51.142 136.435 50.1364C135.964 49.1307 135.728 47.9091 135.728 46.4716C135.728 45.017 135.967 43.7898 136.444 42.7898C136.927 41.7841 137.577 41.0256 138.396 40.5142C139.214 39.9972 140.126 39.7386 141.131 39.7386C141.898 39.7386 142.529 39.8693 143.023 40.1307C143.518 40.3864 143.91 40.696 144.2 41.0597C144.489 41.4176 144.714 41.7557 144.873 42.0739H145.001V35.5455H148.094V53H145.06V50.9375H144.873C144.714 51.2557 144.484 51.5937 144.183 51.9517C143.881 52.304 143.484 52.6051 142.989 52.8551C142.495 53.1051 141.873 53.2301 141.123 53.2301ZM141.984 50.6989C142.637 50.6989 143.194 50.5227 143.654 50.1705C144.114 49.8125 144.464 49.3153 144.702 48.679C144.941 48.0426 145.06 47.3011 145.06 46.4545C145.06 45.608 144.941 44.8722 144.702 44.2472C144.469 43.6222 144.123 43.1364 143.663 42.7898C143.208 42.4432 142.648 42.2699 141.984 42.2699C141.296 42.2699 140.722 42.4489 140.262 42.8068C139.802 43.1648 139.455 43.6591 139.222 44.2898C138.989 44.9205 138.873 45.642 138.873 46.4545C138.873 47.2727 138.989 48.0028 139.222 48.6449C139.461 49.2812 139.81 49.7841 140.271 50.1534C140.737 50.517 141.308 50.6989 141.984 50.6989ZM159.726 47.4943V39.9091H162.811V53H159.82V50.6733H159.683C159.388 51.4062 158.902 52.0057 158.226 52.4716C157.555 52.9375 156.729 53.1705 155.746 53.1705C154.888 53.1705 154.129 52.9801 153.47 52.5994C152.817 52.2131 152.305 51.6534 151.936 50.9205C151.567 50.1818 151.382 49.2898 151.382 48.2443V39.9091H154.467V47.767C154.467 48.5966 154.695 49.2557 155.149 49.7443C155.604 50.233 156.2 50.4773 156.939 50.4773C157.393 50.4773 157.834 50.3665 158.26 50.1449C158.686 49.9233 159.036 49.5938 159.308 49.1562C159.587 48.7131 159.726 48.1591 159.726 47.4943ZM171.694 53.2557C170.387 53.2557 169.265 52.9688 168.327 52.3949C167.396 51.821 166.677 51.0284 166.171 50.017C165.671 49 165.421 47.8295 165.421 46.5057C165.421 45.1761 165.677 44.0028 166.188 42.9858C166.7 41.9631 167.421 41.1676 168.353 40.5994C169.29 40.0256 170.398 39.7386 171.677 39.7386C172.739 39.7386 173.68 39.9347 174.498 40.3267C175.322 40.7131 175.978 41.2614 176.467 41.9716C176.955 42.6761 177.234 43.5 177.302 44.4432H174.353C174.234 43.8125 173.95 43.2869 173.501 42.8665C173.058 42.4403 172.464 42.2273 171.719 42.2273C171.089 42.2273 170.535 42.3977 170.058 42.7386C169.58 43.0739 169.208 43.5568 168.941 44.1875C168.68 44.8182 168.549 45.5739 168.549 46.4545C168.549 47.3466 168.68 48.1136 168.941 48.7557C169.202 49.392 169.569 49.8835 170.04 50.2301C170.518 50.571 171.077 50.7415 171.719 50.7415C172.174 50.7415 172.58 50.6562 172.938 50.4858C173.302 50.3097 173.606 50.0568 173.85 49.7273C174.094 49.3977 174.262 48.9972 174.353 48.5256H177.302C177.228 49.4517 176.955 50.2727 176.484 50.9886C176.012 51.6989 175.37 52.2557 174.558 52.6591C173.745 53.0568 172.79 53.2557 171.694 53.2557ZM186.372 39.9091V42.2955H178.847V39.9091H186.372ZM180.705 36.7727H183.79V49.0625C183.79 49.4773 183.852 49.7955 183.977 50.017C184.108 50.233 184.278 50.3807 184.489 50.4602C184.699 50.5398 184.932 50.5795 185.188 50.5795C185.381 50.5795 185.557 50.5653 185.716 50.5369C185.881 50.5085 186.006 50.483 186.091 50.4602L186.611 52.8722C186.446 52.929 186.21 52.9915 185.903 53.0597C185.602 53.1278 185.233 53.1676 184.795 53.179C184.023 53.2017 183.327 53.0852 182.707 52.8295C182.088 52.5682 181.597 52.1648 181.233 51.6193C180.875 51.0739 180.699 50.392 180.705 49.5739V36.7727Z" fill="white"/>
<path fill-rule="evenodd" clip-rule="evenodd" d="M221.013 36.2627C221.341 35.9347 221.786 35.7504 222.25 35.7504C222.714 35.7504 223.159 35.9347 223.487 36.2627L230.487 43.2627C230.815 43.5909 231 44.036 231 44.5C231 44.964 230.815 45.4091 230.487 45.7372L223.487 52.7372C223.157 53.056 222.715 53.2324 222.256 53.2284C221.797 53.2244 221.359 53.0404 221.034 52.7159C220.71 52.3915 220.526 51.9525 220.522 51.4937C220.518 51.0349 220.694 50.5928 221.013 50.2627L225.026 46.25H211.75C211.286 46.25 210.841 46.0656 210.513 45.7374C210.184 45.4092 210 44.9641 210 44.5C210 44.0359 210.184 43.5907 210.513 43.2626C210.841 42.9344 211.286 42.75 211.75 42.75H225.026L221.013 38.7372C220.685 38.4091 220.5 37.964 220.5 37.5C220.5 37.036 220.685 36.5909 221.013 36.2627Z" fill="white"/>
</svg>
