<svg width="214" height="71" viewBox="0 0 214 71" fill="none" xmlns="http://www.w3.org/2000/svg">
<rect x="2.5" y="2.5" width="209" height="66" rx="33" stroke="#C8816A" stroke-width="5"/>
<path d="M58.108 26.5455H61.2443V38.8182C61.2386 39.9432 61 40.9119 60.5284 41.7244C60.0568 42.5312 59.3977 43.1534 58.5511 43.5909C57.7102 44.0227 56.7301 44.2386 55.6108 44.2386C54.5881 44.2386 53.6676 44.0568 52.8494 43.6932C52.0369 43.3239 51.392 42.7784 50.9148 42.0568C50.4375 41.3352 50.1989 40.4375 50.1989 39.3636H53.3438C53.3494 39.8352 53.4517 40.2415 53.6506 40.5824C53.8551 40.9233 54.1364 41.1847 54.4943 41.3665C54.8523 41.5483 55.2642 41.6392 55.7301 41.6392C56.2358 41.6392 56.6648 41.5341 57.017 41.3239C57.3693 41.108 57.6364 40.7898 57.8182 40.3693C58.0057 39.9489 58.1023 39.4318 58.108 38.8182V26.5455ZM70.2486 44.2557C68.9702 44.2557 67.8622 43.9744 66.9247 43.4119C65.9872 42.8494 65.2599 42.0625 64.7429 41.0511C64.2315 40.0398 63.9759 38.858 63.9759 37.5057C63.9759 36.1534 64.2315 34.9687 64.7429 33.9517C65.2599 32.9347 65.9872 32.1449 66.9247 31.5824C67.8622 31.0199 68.9702 30.7386 70.2486 30.7386C71.527 30.7386 72.6349 31.0199 73.5724 31.5824C74.5099 32.1449 75.2344 32.9347 75.7457 33.9517C76.2628 34.9687 76.5213 36.1534 76.5213 37.5057C76.5213 38.858 76.2628 40.0398 75.7457 41.0511C75.2344 42.0625 74.5099 42.8494 73.5724 43.4119C72.6349 43.9744 71.527 44.2557 70.2486 44.2557ZM70.2656 41.7841C70.9588 41.7841 71.5384 41.5937 72.0043 41.2131C72.4702 40.8267 72.8168 40.3097 73.044 39.6619C73.277 39.0142 73.3935 38.2926 73.3935 37.4972C73.3935 36.696 73.277 35.9716 73.044 35.3239C72.8168 34.6705 72.4702 34.1506 72.0043 33.7642C71.5384 33.3778 70.9588 33.1847 70.2656 33.1847C69.5554 33.1847 68.9645 33.3778 68.4929 33.7642C68.027 34.1506 67.6776 34.6705 67.4446 35.3239C67.2173 35.9716 67.1037 36.696 67.1037 37.4972C67.1037 38.2926 67.2173 39.0142 67.4446 39.6619C67.6776 40.3097 68.027 40.8267 68.4929 41.2131C68.9645 41.5937 69.5554 41.7841 70.2656 41.7841ZM79.1399 44V30.9091H82.2251V44H79.1399ZM80.6911 29.0511C80.2024 29.0511 79.782 28.8892 79.4297 28.5653C79.0774 28.2358 78.9013 27.8409 78.9013 27.3807C78.9013 26.9148 79.0774 26.5199 79.4297 26.196C79.782 25.8665 80.2024 25.7017 80.6911 25.7017C81.1854 25.7017 81.6058 25.8665 81.9524 26.196C82.3047 26.5199 82.4808 26.9148 82.4808 27.3807C82.4808 27.8409 82.3047 28.2358 81.9524 28.5653C81.6058 28.8892 81.1854 29.0511 80.6911 29.0511ZM88.483 36.3295V44H85.3977V30.9091H88.3466V33.1335H88.5C88.8011 32.4006 89.2813 31.8182 89.9403 31.3864C90.6051 30.9545 91.4261 30.7386 92.4034 30.7386C93.3068 30.7386 94.0938 30.9318 94.7642 31.3182C95.4403 31.7045 95.9631 32.2642 96.3324 32.9972C96.7074 33.7301 96.892 34.6193 96.8864 35.6648V44H93.8011V36.142C93.8011 35.267 93.5739 34.5824 93.1193 34.0881C92.6705 33.5937 92.0483 33.3466 91.2528 33.3466C90.7131 33.3466 90.233 33.4659 89.8125 33.7045C89.3977 33.9375 89.071 34.2756 88.8324 34.7188C88.5994 35.1619 88.483 35.6989 88.483 36.3295ZM120.456 26.5455V44H117.643L109.419 32.1108H109.274V44H106.112V26.5455H108.942L117.158 38.4432H117.311V26.5455H120.456ZM129.475 44.2557C128.197 44.2557 127.089 43.9744 126.151 43.4119C125.214 42.8494 124.487 42.0625 123.969 41.0511C123.458 40.0398 123.202 38.858 123.202 37.5057C123.202 36.1534 123.458 34.9687 123.969 33.9517C124.487 32.9347 125.214 32.1449 126.151 31.5824C127.089 31.0199 128.197 30.7386 129.475 30.7386C130.754 30.7386 131.862 31.0199 132.799 31.5824C133.737 32.1449 134.461 32.9347 134.972 33.9517C135.489 34.9687 135.748 36.1534 135.748 37.5057C135.748 38.858 135.489 40.0398 134.972 41.0511C134.461 42.0625 133.737 42.8494 132.799 43.4119C131.862 43.9744 130.754 44.2557 129.475 44.2557ZM129.492 41.7841C130.185 41.7841 130.765 41.5937 131.231 41.2131C131.697 40.8267 132.043 40.3097 132.271 39.6619C132.504 39.0142 132.62 38.2926 132.62 37.4972C132.62 36.696 132.504 35.9716 132.271 35.3239C132.043 34.6705 131.697 34.1506 131.231 33.7642C130.765 33.3778 130.185 33.1847 129.492 33.1847C128.782 33.1847 128.191 33.3778 127.719 33.7642C127.254 34.1506 126.904 34.6705 126.671 35.3239C126.444 35.9716 126.33 36.696 126.33 37.4972C126.33 38.2926 126.444 39.0142 126.671 39.6619C126.904 40.3097 127.254 40.8267 127.719 41.2131C128.191 41.5937 128.782 41.7841 129.492 41.7841ZM140.693 44L136.994 30.9091H140.139L142.44 40.1136H142.56L144.912 30.9091H148.023L150.375 40.0625H150.503L152.77 30.9091H155.923L152.216 44H149.003L146.548 35.1534H146.369L143.915 44H140.693ZM161.853 26.5455L161.572 38.8693H158.827L158.555 26.5455H161.853ZM160.2 44.1875C159.683 44.1875 159.239 44.0057 158.87 43.642C158.506 43.2784 158.325 42.8352 158.325 42.3125C158.325 41.8011 158.506 41.3636 158.87 41C159.239 40.6364 159.683 40.4545 160.2 40.4545C160.705 40.4545 161.143 40.6364 161.512 41C161.887 41.3636 162.075 41.8011 162.075 42.3125C162.075 42.6591 161.987 42.9744 161.81 43.2585C161.64 43.5426 161.413 43.7699 161.129 43.9403C160.85 44.1051 160.54 44.1875 160.2 44.1875Z" fill="#C8816A"/>
</svg>
