<svg width="214" height="86" viewBox="0 0 214 86" fill="none" xmlns="http://www.w3.org/2000/svg">
<rect x="2.5" y="9.5" width="209" height="66" rx="33" stroke="#C8816A" stroke-width="5"/>
<path d="M58.108 33.5455H61.2443V45.8182C61.2386 46.9432 61 47.9119 60.5284 48.7244C60.0568 49.5312 59.3977 50.1534 58.5511 50.5909C57.7102 51.0227 56.7301 51.2386 55.6108 51.2386C54.5881 51.2386 53.6676 51.0568 52.8494 50.6932C52.0369 50.3239 51.392 49.7784 50.9148 49.0568C50.4375 48.3352 50.1989 47.4375 50.1989 46.3636H53.3438C53.3494 46.8352 53.4517 47.2415 53.6506 47.5824C53.8551 47.9233 54.1364 48.1847 54.4943 48.3665C54.8523 48.5483 55.2642 48.6392 55.7301 48.6392C56.2358 48.6392 56.6648 48.5341 57.017 48.3239C57.3693 48.108 57.6364 47.7898 57.8182 47.3693C58.0057 46.9489 58.1023 46.4318 58.108 45.8182V33.5455ZM70.2486 51.2557C68.9702 51.2557 67.8622 50.9744 66.9247 50.4119C65.9872 49.8494 65.2599 49.0625 64.7429 48.0511C64.2315 47.0398 63.9759 45.858 63.9759 44.5057C63.9759 43.1534 64.2315 41.9687 64.7429 40.9517C65.2599 39.9347 65.9872 39.1449 66.9247 38.5824C67.8622 38.0199 68.9702 37.7386 70.2486 37.7386C71.527 37.7386 72.6349 38.0199 73.5724 38.5824C74.5099 39.1449 75.2344 39.9347 75.7457 40.9517C76.2628 41.9687 76.5213 43.1534 76.5213 44.5057C76.5213 45.858 76.2628 47.0398 75.7457 48.0511C75.2344 49.0625 74.5099 49.8494 73.5724 50.4119C72.6349 50.9744 71.527 51.2557 70.2486 51.2557ZM70.2656 48.7841C70.9588 48.7841 71.5384 48.5937 72.0043 48.2131C72.4702 47.8267 72.8168 47.3097 73.044 46.6619C73.277 46.0142 73.3935 45.2926 73.3935 44.4972C73.3935 43.696 73.277 42.9716 73.044 42.3239C72.8168 41.6705 72.4702 41.1506 72.0043 40.7642C71.5384 40.3778 70.9588 40.1847 70.2656 40.1847C69.5554 40.1847 68.9645 40.3778 68.4929 40.7642C68.027 41.1506 67.6776 41.6705 67.4446 42.3239C67.2173 42.9716 67.1037 43.696 67.1037 44.4972C67.1037 45.2926 67.2173 46.0142 67.4446 46.6619C67.6776 47.3097 68.027 47.8267 68.4929 48.2131C68.9645 48.5937 69.5554 48.7841 70.2656 48.7841ZM79.1399 51V37.9091H82.2251V51H79.1399ZM80.6911 36.0511C80.2024 36.0511 79.782 35.8892 79.4297 35.5653C79.0774 35.2358 78.9013 34.8409 78.9013 34.3807C78.9013 33.9148 79.0774 33.5199 79.4297 33.196C79.782 32.8665 80.2024 32.7017 80.6911 32.7017C81.1854 32.7017 81.6058 32.8665 81.9524 33.196C82.3047 33.5199 82.4808 33.9148 82.4808 34.3807C82.4808 34.8409 82.3047 35.2358 81.9524 35.5653C81.6058 35.8892 81.1854 36.0511 80.6911 36.0511ZM88.483 43.3295V51H85.3977V37.9091H88.3466V40.1335H88.5C88.8011 39.4006 89.2813 38.8182 89.9403 38.3864C90.6051 37.9545 91.4261 37.7386 92.4034 37.7386C93.3068 37.7386 94.0938 37.9318 94.7642 38.3182C95.4403 38.7045 95.9631 39.2642 96.3324 39.9972C96.7074 40.7301 96.892 41.6193 96.8864 42.6648V51H93.8011V43.142C93.8011 42.267 93.5739 41.5824 93.1193 41.0881C92.6705 40.5937 92.0483 40.3466 91.2528 40.3466C90.7131 40.3466 90.233 40.4659 89.8125 40.7045C89.3977 40.9375 89.071 41.2756 88.8324 41.7188C88.5994 42.1619 88.483 42.6989 88.483 43.3295ZM120.456 33.5455V51H117.643L109.419 39.1108H109.274V51H106.112V33.5455H108.942L117.158 45.4432H117.311V33.5455H120.456ZM129.475 51.2557C128.197 51.2557 127.089 50.9744 126.151 50.4119C125.214 49.8494 124.487 49.0625 123.969 48.0511C123.458 47.0398 123.202 45.858 123.202 44.5057C123.202 43.1534 123.458 41.9687 123.969 40.9517C124.487 39.9347 125.214 39.1449 126.151 38.5824C127.089 38.0199 128.197 37.7386 129.475 37.7386C130.754 37.7386 131.862 38.0199 132.799 38.5824C133.737 39.1449 134.461 39.9347 134.972 40.9517C135.489 41.9687 135.748 43.1534 135.748 44.5057C135.748 45.858 135.489 47.0398 134.972 48.0511C134.461 49.0625 133.737 49.8494 132.799 50.4119C131.862 50.9744 130.754 51.2557 129.475 51.2557ZM129.492 48.7841C130.185 48.7841 130.765 48.5937 131.231 48.2131C131.697 47.8267 132.043 47.3097 132.271 46.6619C132.504 46.0142 132.62 45.2926 132.62 44.4972C132.62 43.696 132.504 42.9716 132.271 42.3239C132.043 41.6705 131.697 41.1506 131.231 40.7642C130.765 40.3778 130.185 40.1847 129.492 40.1847C128.782 40.1847 128.191 40.3778 127.719 40.7642C127.254 41.1506 126.904 41.6705 126.671 42.3239C126.444 42.9716 126.33 43.696 126.33 44.4972C126.33 45.2926 126.444 46.0142 126.671 46.6619C126.904 47.3097 127.254 47.8267 127.719 48.2131C128.191 48.5937 128.782 48.7841 129.492 48.7841ZM140.693 51L136.994 37.9091H140.139L142.44 47.1136H142.56L144.912 37.9091H148.023L150.375 47.0625H150.503L152.77 37.9091H155.923L152.216 51H149.003L146.548 42.1534H146.369L143.915 51H140.693ZM161.853 33.5455L161.572 45.8693H158.827L158.555 33.5455H161.853ZM160.2 51.1875C159.683 51.1875 159.239 51.0057 158.87 50.642C158.506 50.2784 158.325 49.8352 158.325 49.3125C158.325 48.8011 158.506 48.3636 158.87 48C159.239 47.6364 159.683 47.4545 160.2 47.4545C160.705 47.4545 161.143 47.6364 161.512 48C161.887 48.3636 162.075 48.8011 162.075 49.3125C162.075 49.6591 161.987 49.9744 161.81 50.2585C161.64 50.5426 161.413 50.7699 161.129 50.9403C160.85 51.1051 160.54 51.1875 160.2 51.1875Z" fill="#C8816A"/>
</svg>
