<svg width="52" height="52" viewBox="0 0 52 52" fill="none" xmlns="http://www.w3.org/2000/svg">
<rect x="1" y="1" width="50" height="50" rx="25" stroke="#593D29" stroke-width="2"/>
<path d="M14 16.25C14 16.0511 14.079 15.8603 14.2197 15.7197C14.3603 15.579 14.5511 15.5 14.75 15.5H17C17.1673 15.5 17.3298 15.556 17.4616 15.659C17.5934 15.762 17.687 15.9062 17.7275 16.0685L18.335 18.5H35.75C35.8609 18.5001 35.9704 18.5247 36.0707 18.5722C36.1709 18.6197 36.2594 18.6889 36.3297 18.7746C36.4 18.8604 36.4504 18.9608 36.4772 19.0684C36.5041 19.176 36.5067 19.2882 36.485 19.397L34.985 26.897C34.9522 27.0605 34.8658 27.2085 34.7395 27.3174C34.6131 27.4264 34.4541 27.4901 34.2875 27.4985L20.192 28.2065L20.6225 30.5H33.5C33.6989 30.5 33.8897 30.579 34.0303 30.7197C34.171 30.8603 34.25 31.0511 34.25 31.25C34.25 31.4489 34.171 31.6397 34.0303 31.7803C33.8897 31.921 33.6989 32 33.5 32H20C19.8251 31.9998 19.6558 31.9386 19.5214 31.8268C19.3869 31.7151 19.2957 31.5599 19.2635 31.388L17.015 19.4105L16.415 17H14.75C14.5511 17 14.3603 16.921 14.2197 16.7803C14.079 16.6397 14 16.4489 14 16.25ZM18.653 20L19.913 26.7185L33.629 26.03L34.835 20H18.653ZM21.5 32C20.7044 32 19.9413 32.3161 19.3787 32.8787C18.8161 33.4413 18.5 34.2044 18.5 35C18.5 35.7956 18.8161 36.5587 19.3787 37.1213C19.9413 37.6839 20.7044 38 21.5 38C22.2956 38 23.0587 37.6839 23.6213 37.1213C24.1839 36.5587 24.5 35.7956 24.5 35C24.5 34.2044 24.1839 33.4413 23.6213 32.8787C23.0587 32.3161 22.2956 32 21.5 32ZM32 32C31.2044 32 30.4413 32.3161 29.8787 32.8787C29.3161 33.4413 29 34.2044 29 35C29 35.7956 29.3161 36.5587 29.8787 37.1213C30.4413 37.6839 31.2044 38 32 38C32.7956 38 33.5587 37.6839 34.1213 37.1213C34.6839 36.5587 35 35.7956 35 35C35 34.2044 34.6839 33.4413 34.1213 32.8787C33.5587 32.3161 32.7956 32 32 32ZM21.5 33.5C21.8978 33.5 22.2794 33.658 22.5607 33.9393C22.842 34.2206 23 34.6022 23 35C23 35.3978 22.842 35.7794 22.5607 36.0607C22.2794 36.342 21.8978 36.5 21.5 36.5C21.1022 36.5 20.7206 36.342 20.4393 36.0607C20.158 35.7794 20 35.3978 20 35C20 34.6022 20.158 34.2206 20.4393 33.9393C20.7206 33.658 21.1022 33.5 21.5 33.5ZM32 33.5C32.3978 33.5 32.7794 33.658 33.0607 33.9393C33.342 34.2206 33.5 34.6022 33.5 35C33.5 35.3978 33.342 35.7794 33.0607 36.0607C32.7794 36.342 32.3978 36.5 32 36.5C31.6022 36.5 31.2206 36.342 30.9393 36.0607C30.658 35.7794 30.5 35.3978 30.5 35C30.5 34.6022 30.658 34.2206 30.9393 33.9393C31.2206 33.658 31.6022 33.5 32 33.5Z" fill="#593D29"/>
</svg>
