<svg width="52" height="52" viewBox="0 0 52 52" fill="none" xmlns="http://www.w3.org/2000/svg">
<rect x="1" y="1" width="50" height="50" rx="25" stroke="#593D29" stroke-width="2"/>
<path fill-rule="evenodd" clip-rule="evenodd" d="M25.4917 16.125C20.2855 16.125 16.1093 20.2397 16.125 25.27L16.125 25.2725C16.1249 27.0223 16.6364 28.7339 17.5962 30.1966C17.651 30.2715 17.7023 30.3489 17.7499 30.4286L17.7537 30.4349L17.7573 30.4413C17.8343 30.5761 17.9257 30.7576 17.9886 30.958C18.0462 31.1414 18.1126 31.4404 18.0259 31.7595L18.025 31.7629L17.2185 34.68L20.0089 33.6729C20.2868 33.5586 20.5846 33.5003 20.8853 33.5015L20.8823 34.2826L20.8832 33.5015C20.8839 33.5015 20.8846 33.5015 20.8853 33.5015C21.1658 33.502 21.4438 33.5539 21.7056 33.6546L21.7067 33.655C21.8651 33.7162 22.4959 33.9505 23.1197 34.1251C23.733 34.2967 24.8654 34.5049 25.6665 34.5049C30.8467 34.5049 34.8748 30.3456 34.875 25.2801C34.8748 24.6517 34.8082 24.0248 34.6765 23.4103L34.6762 23.4087C33.7976 19.2666 30.0285 16.125 25.4917 16.125ZM14.5625 25.2737C14.5447 19.3426 19.458 14.5625 25.4917 14.5625C30.7574 14.5625 35.1706 18.2115 36.2045 23.0837C36.3591 23.8054 36.4372 24.5414 36.4375 25.2795C36.4375 31.1913 31.7264 36.0674 25.6665 36.0674C24.6805 36.0674 23.4008 35.8263 22.6986 35.6298C22.0082 35.4366 21.3268 35.1832 21.1448 35.113C21.0607 35.0807 20.9715 35.0641 20.8814 35.064L20.8793 35.064C20.7822 35.0636 20.686 35.0829 20.5966 35.1208L20.5771 35.129L17.2636 36.3249C17.2722 36.3214 17.2807 36.3178 17.2892 36.3141L16.98 35.5967L17.2452 36.3315L17.2636 36.3249C17.1261 36.3813 16.9811 36.4178 16.8331 36.4333L16.7915 36.4376L16.7496 36.4375C16.5842 36.437 16.4206 36.4037 16.2682 36.3395C16.1158 36.2753 15.9776 36.1815 15.8617 36.0636C15.7458 35.9456 15.6545 35.8058 15.593 35.6523C15.5315 35.4988 15.5011 35.3346 15.5035 35.1693L15.5038 35.1458L15.5056 35.1224C15.5136 35.0155 15.5326 34.9097 15.5623 34.8068L15.5609 34.8118L16.3139 35.02L15.5645 34.7996C15.5637 34.802 15.563 34.8044 15.5623 34.8068L16.4974 31.4245C16.4976 31.4251 16.4977 31.4256 16.4979 31.4262C16.5044 31.4469 16.506 31.4568 16.506 31.4568C16.506 31.4568 16.5059 31.456 16.5058 31.4546C16.5052 31.4486 16.5019 31.4092 16.518 31.3499L17.272 31.5547L16.519 31.3465L16.518 31.3499L16.4974 31.4245C16.4803 31.3709 16.4478 31.2998 16.4046 31.2234C16.4058 31.2255 16.4071 31.2275 16.4083 31.2296L17.0791 30.8291L16.4009 31.2169C16.4021 31.2191 16.4033 31.2212 16.4046 31.2234C16.3811 31.1845 16.3557 31.1467 16.3285 31.1102L16.3152 31.0923L16.3028 31.0736C15.1678 29.3522 14.5627 27.3356 14.5625 25.2737ZM14.5625 25.2737C14.5625 25.2741 14.5625 25.2745 14.5625 25.2749L15.3437 25.2725L14.5625 25.2724C14.5625 25.2728 14.5625 25.2733 14.5625 25.2737Z" fill="#593D29"/>
</svg>
